<svg width="946" height="242" viewBox="0 0 946 242" fill="none" xmlns="http://www.w3.org/2000/svg">
<path d="M169.48 15.8441C180.386 15.8445 189.227 24.6856 189.227 35.5917V124.469C189.808 110.743 192.601 99.0787 197.617 89.4806C203.288 78.5284 211.014 70.2663 220.793 64.6923C230.67 59.1182 241.916 56.3301 254.532 56.3301C267.048 56.3302 278.196 59.1185 287.975 64.6923C297.851 70.2663 305.577 78.5286 311.151 89.4806C316.823 100.335 319.66 113.831 319.66 129.967C319.66 146.005 316.823 159.5 311.151 170.453C305.577 181.405 297.852 189.67 287.975 195.244C278.196 200.818 267.048 203.606 254.532 203.606C241.917 203.606 230.67 200.818 220.793 195.244C211.014 189.67 203.288 181.405 197.617 170.453C192.601 160.768 189.808 149.095 189.227 135.434V188.496C189.227 194.896 184.039 200.084 177.639 200.085C171.239 200.085 166.051 194.896 166.051 188.496V87.4034C166.051 77.6949 152.937 74.6466 148.655 83.3597L106.047 170.059C103.986 174.251 99.721 176.908 95.0494 176.908C90.3817 176.908 86.1203 174.255 84.058 170.068L40.274 81.1606C35.9866 72.4546 22.8812 75.5066 22.8812 85.2109V188.642C22.8812 194.961 17.7606 200.084 11.4421 200.085C5.12304 200.085 0 194.962 0 188.642V36.1348C0.000372777 24.9285 9.08435 15.8441 20.2908 15.8441C27.9901 15.8441 35.0262 20.2024 38.4567 27.0952L86.8449 124.318C90.218 131.095 99.887 131.096 103.26 124.318L151.8 26.7937C155.139 20.0855 161.987 15.8441 169.48 15.8441ZM437.856 0C444.174 0.000453514 449.297 5.12381 449.298 11.4421V89.6813C449.298 91.9723 453.641 92.7091 454.658 90.6564C460.134 79.6059 467.615 71.1448 477.1 65.2773C486.684 59.3121 497.588 56.3301 509.812 56.3301C520.471 56.3302 529.565 58.4825 537.095 62.7853C544.625 67.0882 550.689 72.9065 555.285 80.241C559.881 87.5753 563.06 95.8883 564.82 105.178C565.411 108.1 565.869 111.057 566.193 114.048C567.393 125.142 557.828 133.781 546.669 133.781H471.967C471.112 133.781 470.293 133.625 469.535 133.345C469.435 133.308 469.326 133.381 469.326 133.488C469.326 143.267 470.794 152.019 473.728 159.745C476.76 167.47 481.258 173.582 487.223 178.081C493.189 182.579 500.718 184.828 509.812 184.828C518.907 184.828 526.387 182.628 532.255 178.227C535.678 175.66 538.32 172.377 540.178 168.379C542.621 163.124 547.255 158.718 553.05 158.718C560.231 158.718 565.838 165.237 563.065 171.861C561.413 175.808 559.31 179.447 556.753 182.775C551.571 189.425 544.968 194.559 536.949 198.178C528.93 201.796 519.885 203.606 509.812 203.606C497.686 203.606 486.83 200.524 477.247 194.364C467.761 188.105 460.232 179.45 454.658 168.399C453.628 166.322 449.298 167.068 449.298 169.387V189.997C449.298 195.568 444.781 200.084 439.211 200.085C434.09 200.085 429.783 196.247 429.192 191.161C428.692 186.858 422.301 185.501 419.379 188.7C416.694 191.641 413.709 194.165 410.423 196.271C402.894 201.16 394.435 203.603 385.047 203.603C373.704 203.603 363.29 200.573 353.804 194.51C344.318 188.349 336.738 179.742 331.066 168.692C325.394 157.544 322.558 144.441 322.557 129.382C322.557 114.42 325.346 101.46 330.92 90.5072C336.494 79.5549 343.877 71.1447 353.07 65.2773C362.359 59.3124 372.529 56.3304 383.579 56.3301C393.847 56.3301 402.844 58.8247 410.57 63.812C415.93 67.229 426.414 63.6875 426.414 57.3309V11.4421C426.414 5.12353 431.537 0 437.856 0ZM255.117 75.9852C245.925 75.9854 238.15 78.1862 231.794 82.5867C225.535 86.8895 220.743 93.1015 217.418 101.218C214.191 109.237 212.577 118.819 212.577 129.967C212.577 146.493 216.05 159.598 222.993 169.28C230.034 178.863 240.351 183.655 253.944 183.656C263.038 183.656 270.764 181.503 277.12 177.2C283.477 172.8 288.269 166.591 291.496 158.572C294.821 150.553 296.483 141.017 296.483 129.967C296.483 113.245 293.011 100.091 286.067 90.5072C279.124 80.8268 268.807 75.9852 255.117 75.9852ZM387.689 76.5732C380.061 76.5732 373.068 78.7255 366.711 83.0284C360.453 87.2333 355.415 93.2945 351.601 101.215C347.885 109.039 346.03 118.429 346.03 129.382C346.03 140.529 347.886 150.112 351.601 158.13C355.415 166.149 360.453 172.313 366.711 176.615C373.068 180.918 380.061 183.068 387.689 183.068C394.045 183.068 400.157 181.406 406.025 178.081C411.99 174.756 416.879 169.915 420.693 163.559C423.877 158.17 425.733 151.861 426.259 144.632C426.303 144.018 426.414 143.407 426.414 142.791V116.807C426.414 116.206 426.309 115.609 426.268 115.009C425.763 107.621 423.953 101.263 420.839 95.9358C417.221 89.5793 412.477 84.7872 406.609 81.5601C400.742 78.2355 394.436 76.5733 387.689 76.5732ZM510.105 74.8124C501.109 74.8125 493.579 77.1106 487.516 81.7063C481.453 86.3024 476.906 92.3664 473.874 99.8961C471.613 105.441 470.198 111.34 469.625 117.592C469.514 118.803 470.752 119.7 471.967 119.7H535.46C540.542 119.7 544.708 115.553 544.092 110.509C543.941 109.269 543.761 108.029 543.551 106.79C542.67 101.021 540.96 95.7403 538.417 90.9489C535.875 86.0593 532.303 82.1481 527.707 79.2143C523.11 76.2808 517.243 74.8124 510.105 74.8124Z" fill="#FF6A13"/>
<path d="M907.878 214.74L902.432 211.21C913.862 199.982 922.535 187.511 928.451 173.796C934.367 160.013 937.326 146.398 937.326 132.952C937.326 124.01 935.981 114.967 933.292 105.824C930.67 96.6131 926.77 87.6713 921.593 78.9983C916.416 70.2582 910.029 62.1231 902.432 54.5931L907.878 51.4668C919.576 62.5601 928.787 75.2669 935.51 89.5874C942.234 103.841 945.595 118.295 945.595 132.952C945.595 142.566 944.082 152.248 941.057 161.996C938.032 171.745 933.695 181.124 928.048 190.133C922.4 199.075 915.677 207.277 907.878 214.74Z" fill="#FF6A13"/>
<path d="M892.245 192.553V136.482C892.245 125.321 889.555 116.783 884.177 110.866C878.798 104.883 871.336 101.891 861.789 101.891C854.998 101.891 849.183 103.74 844.342 107.437C839.568 111.135 835.904 116.245 833.349 122.766C830.862 129.221 829.618 136.683 829.618 145.155H825.483C825.483 135.406 826.862 126.834 829.618 119.438C832.375 111.976 836.509 106.126 842.022 101.891C847.603 97.6552 854.662 95.5374 863.2 95.5374C870.327 95.5374 876.58 97.1509 881.958 100.378C887.404 103.605 891.64 108.278 894.665 114.396C897.758 120.447 899.304 127.809 899.304 136.482V192.553H892.245ZM822.155 192.553V97.5543H828.307L829.618 122.665V192.553H822.155Z" fill="#FF6A13"/>
<path d="M772.721 194.57C764.384 194.57 757.123 192.452 750.938 188.217C744.753 183.914 739.946 178.065 736.517 170.669C733.088 163.274 731.374 154.903 731.374 145.558C731.374 135.204 733.054 126.296 736.416 118.833C739.845 111.37 744.652 105.622 750.837 101.588C757.023 97.5543 764.317 95.5374 772.721 95.5374C779.512 95.5374 785.226 96.9156 789.865 99.6721C794.572 102.429 798.337 106.194 801.16 110.967C804.051 115.741 806.136 121.119 807.413 127.103C808.69 133.086 809.329 139.305 809.329 145.76H737.727V139.305H805.598L800.959 142.331C801.16 137.625 800.858 132.918 800.051 128.212C799.312 123.439 797.9 119.069 795.815 115.102C793.731 111.135 790.807 107.942 787.042 105.521C783.277 103.101 778.503 101.891 772.721 101.891C765.191 101.891 758.905 103.841 753.863 107.74C748.887 111.639 745.156 116.682 742.669 122.867C740.248 128.985 739.038 135.406 739.038 142.129V145.558C739.038 153.491 740.248 160.685 742.669 167.139C745.156 173.527 748.887 178.603 753.863 182.368C758.905 186.133 765.191 188.015 772.721 188.015C780.587 188.015 786.974 186.065 791.882 182.166C796.858 178.266 799.782 172.518 800.656 164.921H809.127C808.119 171.375 805.934 176.821 802.572 181.258C799.211 185.628 794.975 188.956 789.865 191.242C784.756 193.461 779.041 194.57 772.721 194.57Z" fill="#FF6A13"/>
<path d="M682.588 241.162C674.117 241.162 666.587 239.885 659.998 237.33C653.409 234.842 648.233 231.447 644.468 227.144C640.77 222.841 638.921 217.967 638.921 212.521C638.921 204.521 641.879 198.47 647.796 194.368C653.712 190.335 661.444 188.318 670.991 188.318V192.755C663.057 192.755 656.905 194.537 652.535 198.1C648.165 201.663 645.98 206.47 645.98 212.521C645.98 218.438 648.972 223.614 654.956 228.052C660.939 232.556 670.15 234.809 682.588 234.809C691.933 234.809 700.203 233.498 707.397 230.875C714.591 228.321 720.238 224.892 724.339 220.589C728.44 216.286 730.491 211.647 730.491 206.672C730.491 203.041 729.045 199.814 726.154 196.991C723.331 194.167 719.028 192.755 713.246 192.755H670.991C664.536 192.755 659.292 191.847 655.258 190.032C651.224 188.217 648.233 185.864 646.283 182.973C644.4 180.082 643.459 177.023 643.459 173.795C643.459 169.829 644.568 166.534 646.787 163.912C649.073 161.223 651.93 159.24 655.359 157.962C658.788 156.618 662.25 155.945 665.746 155.945V159.677C663.662 159.677 661.444 160.215 659.091 161.29C656.805 162.299 654.855 163.845 653.241 165.929C651.628 168.014 650.821 170.669 650.821 173.896C650.821 177.392 652.199 180.384 654.956 182.872C657.779 185.359 663.124 186.603 670.991 186.603H713.246C721.045 186.603 727.129 188.519 731.499 192.352C735.937 196.184 738.155 200.991 738.155 206.773C738.155 212.286 735.97 217.664 731.6 222.908C727.23 228.22 720.91 232.59 712.641 236.019C704.371 239.448 694.354 241.162 682.588 241.162ZM687.025 166.333C679.966 166.333 673.713 164.82 668.268 161.795C662.822 158.769 658.553 154.601 655.46 149.289C652.367 143.911 650.821 137.759 650.821 130.834C650.821 123.909 652.367 117.825 655.46 112.581C658.553 107.269 662.822 103.101 668.268 100.076C673.713 97.0501 679.966 95.5374 687.025 95.5374C693.883 95.5374 699.968 97.0501 705.279 100.076C710.657 103.101 714.893 107.269 717.986 112.581C721.078 117.825 722.625 123.909 722.625 130.834C722.625 137.759 721.078 143.911 717.986 149.289C714.893 154.601 710.657 158.769 705.279 161.795C699.968 164.82 693.883 166.333 687.025 166.333ZM686.824 160.484C695.429 160.484 702.287 157.693 707.397 152.113C712.574 146.466 715.162 139.373 715.162 130.834C715.162 122.363 712.574 115.438 707.397 110.059C702.287 104.614 695.497 101.891 687.025 101.891C678.285 101.891 671.327 104.614 666.15 110.059C661.04 115.438 658.485 122.363 658.485 130.834C658.485 139.373 661.04 146.466 666.15 152.113C671.327 157.693 678.218 160.484 686.824 160.484ZM715.565 110.463L711.632 110.765C711.632 105.32 712.473 100.546 714.154 96.445C715.902 92.2766 718.591 89.0159 722.221 86.6627C725.852 84.3096 730.558 83.1331 736.34 83.1331L735.13 91.3018C728.877 91.3018 724.037 92.8481 720.608 95.9408C717.246 99.0334 715.565 103.874 715.565 110.463Z" fill="#FF6A13"/>
<path d="M640.021 51.4668L645.366 54.5931C637.768 62.1231 631.381 70.2582 626.204 78.9983C621.095 87.6713 617.229 96.6131 614.607 105.824C611.985 114.967 610.674 124.01 610.674 132.952C610.674 146.398 613.598 160.013 619.448 173.796C625.364 187.511 634.003 199.982 645.366 211.21L640.021 214.74C628.255 203.512 619.044 190.704 612.388 176.317C605.732 161.862 602.404 147.407 602.404 132.952C602.404 118.295 605.732 103.841 612.388 89.5874C619.044 75.2669 628.255 62.5601 640.021 51.4668Z" fill="#FF6A13"/>
</svg>
